<?xml version="1.0" encoding="UTF-8"?>
<svg width="65px" height="40px" viewBox="0 0 65 40" version="1.1" xmlns="http://www.w3.org/2000/svg" xmlns:xlink="http://www.w3.org/1999/xlink">
    <title>Logotipo</title>
    <defs>
        <polygon id="path-1" points="0 0 27.4992604 0 27.4992604 25.123894 0 25.123894"></polygon>
    </defs>
    <g id="symbols" stroke="none" stroke-width="1" fill="none" fill-rule="evenodd">
        <g id="header/-main-alternate" transform="translate(-35.000000, -82.000000)">
            <g id="Group" transform="translate(29.000000, 73.000000)">
                <g id="Group-28" transform="translate(6.000000, 9.000000)">
                    <polygon id="Fill-1" fill="#1B2A4A" points="32.0148834 0 0 31.7099233 5.96018391 38 57.6562641 38 64 31.7099233"></polygon>
                    <g id="Group" transform="translate(14.000000, 17.281254)" fill="#FEFEFE">
                        <path d="M9.47636524,4.69886166 C9.30611371,4.2059522 9.28186135,4.04180949 9.23287159,3.50028298 L9.0393378,3.50028298 C8.99083309,4.01726029 8.99083309,4.13519273 8.7972993,4.69886166 L6.66454719,9.46814584 L11.2205946,9.46814584 L9.47636524,4.69886166 Z M8.67603752,0.023923438 L12.3590002,0.023923438 L17.4728518,12.6393251 C18.3939562,14.6138511 19.0002651,14.9426179 20.7444945,14.9426179 L20.7444945,16.6105195 L10.7840522,16.6105195 L10.7840522,14.9426179 L11.5358752,14.9426179 C12.0204373,14.9426179 12.7960276,14.91855 12.7960276,14.1204603 C12.7960276,13.8374224 12.7232705,13.5794151 12.6257761,13.2978213 L11.8511559,11.1360475 L5.93697653,11.1360475 L5.01635713,13.344513 C4.89509536,13.5794151 4.82282334,13.8147987 4.82282334,14.0723246 C4.82282334,14.4487457 4.96833747,14.7308208 5.37965741,14.8477906 C5.64691837,14.9426179 5.84045216,14.9426179 6.83431367,14.9426179 L6.83431367,16.6105195 L0,16.6105195 L0,14.9426179 C1.52741333,14.8477906 2.03574269,14.7072344 2.95684714,12.7336711 L8.67603752,0.023923438 Z" id="Fill-23"></path>
                        <path d="M18.7322766,0 L28.3294185,0 L28.3294185,1.66790166 C27.5533432,1.66790166 27.4815562,1.66790166 27.2385476,1.69196951 C25.9298905,1.83300708 25.9061232,2.70185629 25.9061232,3.33628468 L25.9061232,13.1564468 C25.9298905,14.4248223 26.1486468,14.895108 27.4568188,14.9427623 L29.9776086,14.9427623 C30.9952374,14.9186944 31.9648466,14.895108 32.7884566,13.9083263 C33.4912898,13.0625822 33.5887843,12.0286276 33.6857937,11.0890189 L35.4062558,11.0890189 L35.0419854,16.6101826 L18.7322766,16.6101826 L18.7322766,14.9427623 C19.1198292,14.9427623 19.4836145,14.9653861 19.8716522,14.8724842 C21.1080373,14.6139955 21.1555719,13.6743869 21.1803093,13.0389957 L21.1803093,3.853262 C21.1555719,2.0438414 20.6714949,1.64527789 18.7322766,1.66790166 L18.7322766,0 Z" id="Fill-25"></path>
                    </g>
                </g>
            </g>
        </g>
    </g>
</svg>